<svg xmlns="http://www.w3.org/2000/svg" version="1.1" xmlns:xlink="http://www.w3.org/1999/xlink" xmlns:svgjs="http://svgjs.dev/svgjs" viewBox="0 0 800 800"><defs><linearGradient gradientTransform="rotate(270)" x1="50%" y1="0%" x2="50%" y2="100%" id="sssquiggly-grad"><stop stop-color="hsl(206, 75%, 49%)" stop-opacity="1" offset="0%"></stop><stop stop-color="hsl(331, 90%, 56%)" stop-opacity="1" offset="100%"></stop></linearGradient></defs><g stroke-width="11" stroke="url(#sssquiggly-grad)" fill="none" stroke-linecap="round" transform="matrix(1,0,0,1,-5,-761.2914962768555)"><path d="M10,10C49.583333333333336,11.875,118.75,25.875,200,19C281.25,12.125,316.66666666666663,-28.833333333333336,400,-23C483.33333333333337,-17.166666666666664,516.6666666666666,43.875,600,47C683.3333333333334,50.125,758.3333333333334,3.458333333333332,800,-8"></path><path d="M10,10C49.583333333333336,11.875,118.75,25.875,200,19C281.25,12.125,316.66666666666663,-28.833333333333336,400,-23C483.33333333333337,-17.166666666666664,516.6666666666666,43.875,600,47C683.3333333333334,50.125,758.3333333333334,3.458333333333332,800,-8" transform="matrix(1,0,0,1,0,2299)"></path><path d="M10,10C49.583333333333336,11.875,118.75,25.875,200,19C281.25,12.125,316.66666666666663,-28.833333333333336,400,-23C483.33333333333337,-17.166666666666664,516.6666666666666,43.875,600,47C683.3333333333334,50.125,758.3333333333334,3.458333333333332,800,-8" transform="matrix(1,0,0,1,0,2178)"></path><path d="M10,10C49.583333333333336,11.875,118.75,25.875,200,19C281.25,12.125,316.66666666666663,-28.833333333333336,400,-23C483.33333333333337,-17.166666666666664,516.6666666666666,43.875,600,47C683.3333333333334,50.125,758.3333333333334,3.458333333333332,800,-8" transform="matrix(1,0,0,1,0,2057)"></path><path d="M10,10C49.583333333333336,11.875,118.75,25.875,200,19C281.25,12.125,316.66666666666663,-28.833333333333336,400,-23C483.33333333333337,-17.166666666666664,516.6666666666666,43.875,600,47C683.3333333333334,50.125,758.3333333333334,3.458333333333332,800,-8" transform="matrix(1,0,0,1,0,1936)"></path><path d="M10,10C49.583333333333336,11.875,118.75,25.875,200,19C281.25,12.125,316.66666666666663,-28.833333333333336,400,-23C483.33333333333337,-17.166666666666664,516.6666666666666,43.875,600,47C683.3333333333334,50.125,758.3333333333334,3.458333333333332,800,-8" transform="matrix(1,0,0,1,0,1815)"></path><path d="M10,10C49.583333333333336,11.875,118.75,25.875,200,19C281.25,12.125,316.66666666666663,-28.833333333333336,400,-23C483.33333333333337,-17.166666666666664,516.6666666666666,43.875,600,47C683.3333333333334,50.125,758.3333333333334,3.458333333333332,800,-8" transform="matrix(1,0,0,1,0,1694)"></path><path d="M10,10C49.583333333333336,11.875,118.75,25.875,200,19C281.25,12.125,316.66666666666663,-28.833333333333336,400,-23C483.33333333333337,-17.166666666666664,516.6666666666666,43.875,600,47C683.3333333333334,50.125,758.3333333333334,3.458333333333332,800,-8" transform="matrix(1,0,0,1,0,1573)"></path><path d="M10,10C49.583333333333336,11.875,118.75,25.875,200,19C281.25,12.125,316.66666666666663,-28.833333333333336,400,-23C483.33333333333337,-17.166666666666664,516.6666666666666,43.875,600,47C683.3333333333334,50.125,758.3333333333334,3.458333333333332,800,-8" transform="matrix(1,0,0,1,0,1452)"></path><path d="M10,10C49.583333333333336,11.875,118.75,25.875,200,19C281.25,12.125,316.66666666666663,-28.833333333333336,400,-23C483.33333333333337,-17.166666666666664,516.6666666666666,43.875,600,47C683.3333333333334,50.125,758.3333333333334,3.458333333333332,800,-8" transform="matrix(1,0,0,1,0,1331)"></path><path d="M10,10C49.583333333333336,11.875,118.75,25.875,200,19C281.25,12.125,316.66666666666663,-28.833333333333336,400,-23C483.33333333333337,-17.166666666666664,516.6666666666666,43.875,600,47C683.3333333333334,50.125,758.3333333333334,3.458333333333332,800,-8" transform="matrix(1,0,0,1,0,1210)"></path><path d="M10,10C49.583333333333336,11.875,118.75,25.875,200,19C281.25,12.125,316.66666666666663,-28.833333333333336,400,-23C483.33333333333337,-17.166666666666664,516.6666666666666,43.875,600,47C683.3333333333334,50.125,758.3333333333334,3.458333333333332,800,-8" transform="matrix(1,0,0,1,0,1089)"></path><path d="M10,10C49.583333333333336,11.875,118.75,25.875,200,19C281.25,12.125,316.66666666666663,-28.833333333333336,400,-23C483.33333333333337,-17.166666666666664,516.6666666666666,43.875,600,47C683.3333333333334,50.125,758.3333333333334,3.458333333333332,800,-8" transform="matrix(1,0,0,1,0,968)"></path><path d="M10,10C49.583333333333336,11.875,118.75,25.875,200,19C281.25,12.125,316.66666666666663,-28.833333333333336,400,-23C483.33333333333337,-17.166666666666664,516.6666666666666,43.875,600,47C683.3333333333334,50.125,758.3333333333334,3.458333333333332,800,-8" transform="matrix(1,0,0,1,0,847)"></path><path d="M10,10C49.583333333333336,11.875,118.75,25.875,200,19C281.25,12.125,316.66666666666663,-28.833333333333336,400,-23C483.33333333333337,-17.166666666666664,516.6666666666666,43.875,600,47C683.3333333333334,50.125,758.3333333333334,3.458333333333332,800,-8" transform="matrix(1,0,0,1,0,726)"></path><path d="M10,10C49.583333333333336,11.875,118.75,25.875,200,19C281.25,12.125,316.66666666666663,-28.833333333333336,400,-23C483.33333333333337,-17.166666666666664,516.6666666666666,43.875,600,47C683.3333333333334,50.125,758.3333333333334,3.458333333333332,800,-8" transform="matrix(1,0,0,1,0,605)"></path><path d="M10,10C49.583333333333336,11.875,118.75,25.875,200,19C281.25,12.125,316.66666666666663,-28.833333333333336,400,-23C483.33333333333337,-17.166666666666664,516.6666666666666,43.875,600,47C683.3333333333334,50.125,758.3333333333334,3.458333333333332,800,-8" transform="matrix(1,0,0,1,0,484)"></path><path d="M10,10C49.583333333333336,11.875,118.75,25.875,200,19C281.25,12.125,316.66666666666663,-28.833333333333336,400,-23C483.33333333333337,-17.166666666666664,516.6666666666666,43.875,600,47C683.3333333333334,50.125,758.3333333333334,3.458333333333332,800,-8" transform="matrix(1,0,0,1,0,363)"></path><path d="M10,10C49.583333333333336,11.875,118.75,25.875,200,19C281.25,12.125,316.66666666666663,-28.833333333333336,400,-23C483.33333333333337,-17.166666666666664,516.6666666666666,43.875,600,47C683.3333333333334,50.125,758.3333333333334,3.458333333333332,800,-8" transform="matrix(1,0,0,1,0,242)"></path><path d="M10,10C49.583333333333336,11.875,118.75,25.875,200,19C281.25,12.125,316.66666666666663,-28.833333333333336,400,-23C483.33333333333337,-17.166666666666664,516.6666666666666,43.875,600,47C683.3333333333334,50.125,758.3333333333334,3.458333333333332,800,-8" transform="matrix(1,0,0,1,0,121)"></path></g></svg>